# xmcd
#
# Track frame offsets: 
#        150
#        7218
#        20312
#        97876
#        109814
#        122101
#        136338
#        150553
#        165936
#        182032
#        195822
#        207932
#        220289
#        233068
#        246527
#
# Disc length: 3473 seconds
#
# Revision: 2
# Processed by: cddbd v1.5.2PL0 Copyright (c) Steve Scherf et al.
# Submitted via: ExactAudioCopyFreeDBPlugin 1.0
#
DISCID=c20d8f0f
DTITLE=Charlie Parker - Bebop Story 030 - Charlie Parker Vol.8 - 1950-
DTITLE=51
DYEAR=1950
DGENRE=Bebob
TTITLE0=Celebrity
TTITLE1=Ballade
TTITLE2=Afro-Cuban Suite
TTITLE3=Au Privave (1)
TTITLE4=Au Privave (2)
TTITLE5=She Rote (1)
TTITLE6=She Rote (2)
TTITLE7=K.C. Blues
TTITLE8=Star Eyes
TTITLE9=My Little Suede Shoes
TTITLE10=Un Poquito De Tu amor
TTITLE11=Tico Tico
TTITLE12=Fiesta
TTITLE13=Why Do I Love You? (1)
TTITLE14=Why Do I Love You? (2)
EXTD=YEAR: 2008
EXTT0=
EXTT1=
EXTT2=
EXTT3=
EXTT4=
EXTT5=
EXTT6=
EXTT7=
EXTT8=
EXTT9=
EXTT10=
EXTT11=
EXTT12=
EXTT13=
EXTT14=
PLAYORDER=
